<svg width="174" height="25" viewBox="0 0 174 25" fill="none" xmlns="http://www.w3.org/2000/svg">
<g clip-path="url(#clip0_553_381)">
<path d="M49.4341 5.63247e-07C47.8085 5.63247e-07 46.1988 0.323278 44.6969 0.951368C43.195 1.57946 41.8304 2.50006 40.6809 3.66062C39.5314 4.82118 38.6196 6.19895 37.9975 7.7153C37.3754 9.23164 37.0552 10.8568 37.0552 12.4981C37.0552 15.8132 38.3593 18.9925 40.6807 21.337C43.0021 23.6814 46.1507 24.999 49.4341 25C51.0602 25 52.6704 24.6766 54.1728 24.0484C55.6751 23.4201 57.0401 22.4992 58.19 21.3383C59.3398 20.1774 60.2519 18.7992 60.8742 17.2824C61.4965 15.7656 61.8168 14.1399 61.8168 12.4981C61.8168 10.8565 61.4965 9.23101 60.8741 7.71443C60.2518 6.19784 59.3396 4.8199 58.1897 3.65929C57.0399 2.49869 55.6748 1.57816 54.1725 0.950291C52.6701 0.322422 51.06 -0.00049226 49.4341 5.63247e-07ZM50.8983 17.1619C50.8983 17.3559 50.8604 17.548 50.7868 17.7271C50.7132 17.9063 50.6053 18.069 50.4692 18.2059C50.3332 18.3429 50.1718 18.4515 49.9942 18.5253C49.8165 18.5992 49.6262 18.637 49.4341 18.6365C49.0468 18.6365 48.6753 18.4811 48.4014 18.2046C48.1275 17.9281 47.9736 17.553 47.9736 17.1619V8.5547C47.9731 8.36074 48.0105 8.16859 48.0837 7.98926C48.1569 7.80992 48.2644 7.64692 48.4001 7.5096C48.5357 7.37228 48.6969 7.26333 48.8744 7.18899C49.0518 7.11465 49.242 7.07639 49.4341 7.07639C49.6265 7.07589 49.8172 7.1138 49.995 7.18791C50.1729 7.26203 50.3345 7.3709 50.4706 7.50827C50.6066 7.64565 50.7145 7.80881 50.7879 7.98839C50.8613 8.16797 50.8988 8.36043 50.8983 8.5547V17.1619Z" fill="#EB734B"/>
<path d="M104.301 16.7827V16.5989C104.301 16.2009 104.458 15.8191 104.737 15.5377C105.016 15.2562 105.394 15.0981 105.788 15.0981H118.13C118.524 15.0981 118.902 14.94 119.181 14.6585C119.46 14.377 119.616 13.9953 119.616 13.5972V1.45932C119.616 1.06128 119.46 0.679536 119.181 0.398077C118.902 0.116617 118.524 -0.0415039 118.13 -0.0415039H98.883C98.4887 -0.0415039 98.1106 0.116617 97.8319 0.398077C97.5531 0.679536 97.3965 1.06128 97.3965 1.45932V23.484C97.3965 23.882 97.5531 24.2637 97.8319 24.5452C98.1106 24.8267 98.4887 24.9848 98.883 24.9848H118.122C118.516 24.9848 118.895 24.8267 119.173 24.5452C119.452 24.2637 119.609 23.882 119.609 23.484V19.7319C119.609 19.3338 119.452 18.9521 119.173 18.6706C118.895 18.3892 118.516 18.2311 118.122 18.2311H105.788C105.402 18.2313 105.032 18.0804 104.755 17.8102C104.477 17.54 104.315 17.1716 104.301 16.7827Z" fill="#EB734B"/>
<path d="M111.556 6.52881H106.565C106.265 6.52881 106.022 6.77407 106.022 7.07661V9.4179C106.022 9.72044 106.265 9.9657 106.565 9.9657H111.556C111.855 9.9657 112.098 9.72044 112.098 9.4179V7.07661C112.098 6.77407 111.855 6.52881 111.556 6.52881Z" fill="white"/>
<path d="M92.1488 8.44194V23.5065C92.1488 23.9045 91.9921 24.2863 91.7134 24.5677C91.4346 24.8492 91.0565 25.0073 90.6622 25.0073H85.0878C84.6936 25.0073 84.3155 24.8492 84.0367 24.5677C83.7579 24.2863 83.6013 23.9045 83.6013 23.5065V11.8751C83.6013 10.603 83.101 9.38293 82.2105 8.48307C81.3199 7.58322 80.1119 7.07718 78.8519 7.07619H77.3245C76.9302 7.07619 76.5521 7.23431 76.2734 7.51577C75.9946 7.79723 75.838 8.17897 75.838 8.57701V23.5215C75.838 23.9195 75.6814 24.3013 75.4026 24.5827C75.1238 24.8642 74.7457 25.0223 74.3515 25.0223H68.777C68.3828 25.0223 68.0047 24.8642 67.7259 24.5827C67.4471 24.3013 67.2905 23.9195 67.2905 23.5215V1.49687C67.2905 1.09883 67.4471 0.717086 67.7259 0.435627C68.0047 0.154167 68.3828 -0.00395363 68.777 -0.00395363H83.6979C84.8037 -0.0153609 85.9007 0.194688 86.9255 0.614024C87.9503 1.03336 88.8826 1.65367 89.6685 2.43908C90.4543 3.22449 91.0782 4.15941 91.5039 5.18978C91.9296 6.22015 92.1488 7.32551 92.1488 8.44194Z" fill="#EB734B"/>
<path d="M135.889 2.51774H145.18C145.574 2.51774 145.952 2.67586 146.231 2.95732C146.51 3.23878 146.667 3.62053 146.667 4.01857V7.88695C146.667 8.28499 146.51 8.66673 146.231 8.94819C145.952 9.22965 145.574 9.38777 145.18 9.38777H139.234C137.968 9.38777 136.753 9.89574 135.857 10.7999C134.962 11.7041 134.459 12.9304 134.459 14.2092V23.5368C134.459 23.9348 134.302 24.3166 134.023 24.598C133.745 24.8795 133.366 25.0376 132.972 25.0376H128.431C128.037 25.0376 127.658 24.8795 127.38 24.598C127.101 24.3166 126.944 23.9348 126.944 23.5368V1.05818C126.944 0.78453 127.052 0.522069 127.244 0.328566C127.435 0.135063 127.695 0.0263672 127.966 0.0263672H133.388C133.659 0.0263672 133.919 0.135063 134.111 0.328566C134.303 0.522069 134.41 0.78453 134.41 1.05818C134.421 1.44774 134.581 1.81784 134.857 2.09023C135.133 2.36262 135.503 2.51594 135.889 2.51774Z" fill="#EB734B"/>
<path d="M32.1112 6.64118V23.5255C32.1112 23.9235 31.9546 24.3053 31.6758 24.5867C31.397 24.8682 31.0189 25.0263 30.6247 25.0263H26.1465C25.7523 25.0263 25.3742 24.8682 25.0954 24.5867C24.8166 24.3053 24.66 23.9235 24.66 23.5255V11.395C24.66 10.7353 24.4004 10.1026 23.9384 9.63603C23.4763 9.16952 22.8496 8.90742 22.1961 8.90742C21.5427 8.90742 20.916 9.16952 20.4539 9.63603C19.9918 10.1026 19.7322 10.7353 19.7322 11.395V23.5255C19.7322 23.9235 19.5756 24.3053 19.2968 24.5867C19.0181 24.8682 18.64 25.0263 18.2457 25.0263H13.9014C13.5071 25.0263 13.129 24.8682 12.8502 24.5867C12.5715 24.3053 12.4149 23.9235 12.4149 23.5255V11.395C12.4144 11.0479 12.3421 10.7047 12.2026 10.3875C12.063 10.0702 11.8594 9.78585 11.6046 9.5527C11.3499 9.31954 11.0497 9.1427 10.7234 9.03351C10.397 8.92433 10.0516 8.88523 9.70939 8.91869C9.08714 8.99552 8.51506 9.30212 8.10337 9.77944C7.69167 10.2568 7.46949 10.871 7.47964 11.5038V23.5105C7.47964 23.9085 7.32302 24.2902 7.04425 24.5717C6.76547 24.8532 6.38737 25.0113 5.99312 25.0113H1.4704C1.07615 25.0113 0.698051 24.8532 0.419275 24.5717C0.1405 24.2902 -0.0161133 23.9085 -0.0161133 23.5105V6.62616C-0.0121766 4.86742 0.682581 3.18207 1.91574 1.93986C3.14889 0.697646 4.81974 2.20094e-05 6.56171 2.65005e-05H25.5148C26.3801 -0.00244161 27.2375 0.167513 28.0377 0.500157C28.8379 0.832801 29.5652 1.3216 30.178 1.93853C30.7908 2.55547 31.277 3.28841 31.6087 4.09537C31.9404 4.90234 32.1112 5.76748 32.1112 6.64118Z" fill="#EB734B"/>
<path d="M168.158 1.63079e-06H172.521C172.777 0.00409922 173.028 0.0750959 173.249 0.206086C173.471 0.337076 173.654 0.523606 173.783 0.747552C173.912 0.971498 173.981 1.22525 173.984 1.48413C173.987 1.74302 173.923 1.99822 173.799 2.22497L161.324 24.2496C161.194 24.4764 161.008 24.665 160.784 24.7967C160.559 24.9283 160.305 24.9984 160.045 25H155.682C155.426 24.9965 155.174 24.926 154.953 24.7953C154.731 24.6646 154.546 24.4781 154.417 24.254C154.288 24.03 154.219 23.776 154.216 23.5168C154.213 23.2576 154.276 23.0021 154.4 22.775L159.269 14.1828L158.269 15.9463L151.539 2.11242C151.439 1.88571 151.396 1.63742 151.414 1.38983C151.432 1.14223 151.511 0.90307 151.643 0.693735C151.775 0.4844 151.957 0.311447 152.171 0.190376C152.386 0.069305 152.627 0.00388723 152.873 1.63079e-06H157.072C157.352 0.00184607 157.626 0.0834597 157.862 0.235467C158.098 0.387475 158.287 0.603689 158.406 0.859216L161.379 7.33153C161.454 7.49436 161.571 7.63338 161.719 7.7333C161.866 7.83322 162.038 7.8902 162.215 7.89795C162.393 7.90571 162.569 7.86395 162.724 7.77727C162.88 7.69058 163.008 7.56232 163.096 7.40657L166.868 0.750414C166.999 0.521935 167.187 0.332265 167.413 0.200521C167.64 0.0687765 167.897 -0.00038724 168.158 1.63079e-06Z" fill="#EB734B"/>
</g>
<defs>
<clipPath id="clip0_553_381">
<rect width="174" height="25" fill="white"/>
</clipPath>
</defs>
</svg>
