<svg width="250" height="37" viewBox="0 0 250 37" fill="none" xmlns="http://www.w3.org/2000/svg">
<g clip-path="url(#clip0_458_200)">
<path d="M71.0261 8.13353e-07C68.6904 8.13353e-07 66.3776 0.466827 64.2197 1.37382C62.0618 2.2808 60.1012 3.6102 58.4496 5.28609C56.798 6.96199 55.4879 8.95155 54.5941 11.1412C53.7003 13.3309 53.2402 15.6777 53.2402 18.0478V18.0478C53.2402 22.8349 55.1139 27.426 58.4493 30.8115C61.7846 34.197 66.3085 36.0996 71.0261 36.1011C73.3624 36.1011 75.6759 35.6341 77.8345 34.7269C79.993 33.8196 81.9542 32.4898 83.6063 30.8134C85.2584 29.137 86.5689 27.1468 87.463 24.9565C88.3571 22.7662 88.8172 20.4186 88.8172 18.0478C88.8172 15.6773 88.357 13.33 87.4629 11.14C86.5687 8.94994 85.2581 6.96014 83.606 5.28418C81.9539 3.60821 79.9925 2.27893 77.834 1.37226C75.6755 0.465592 73.3622 -0.000710844 71.0261 8.13353e-07ZM73.1298 24.7826C73.1298 25.0627 73.0754 25.34 72.9696 25.5987C72.8638 25.8574 72.7087 26.0924 72.5133 26.2902C72.3179 26.4879 72.0859 26.6447 71.8307 26.7514C71.5755 26.8581 71.3021 26.9126 71.0261 26.9119C70.4695 26.9119 69.9358 26.6876 69.5423 26.2882C69.1487 25.8889 68.9276 25.3473 68.9276 24.7826V12.3534C68.9269 12.0733 68.9807 11.7958 69.0858 11.5368C69.191 11.2779 69.3454 11.0425 69.5404 10.8442C69.7353 10.6459 69.9669 10.4886 70.2218 10.3812C70.4768 10.2739 70.75 10.2186 71.0261 10.2186C71.3025 10.2179 71.5764 10.2726 71.832 10.3797C72.0875 10.4867 72.3197 10.6439 72.5152 10.8423C72.7107 11.0406 72.8656 11.2763 72.9711 11.5356C73.0766 11.7949 73.1305 12.0728 73.1298 12.3534V24.7826Z" fill="#EB734B"/>
<path d="M149.858 24.2354V23.9699C149.858 23.3951 150.083 22.8438 150.483 22.4374C150.884 22.031 151.427 21.8026 151.994 21.8026H169.726C170.292 21.8026 170.836 21.5743 171.236 21.1678C171.637 20.7614 171.862 20.2102 171.862 19.6354V2.10769C171.862 1.53289 171.637 0.981642 171.236 0.575203C170.836 0.168763 170.292 -0.0595703 169.726 -0.0595703H142.073C141.506 -0.0595703 140.963 0.168763 140.563 0.575203C140.162 0.981642 139.937 1.53289 139.937 2.10769V33.9122C139.937 34.487 140.162 35.0382 140.563 35.4447C140.963 35.8511 141.506 36.0794 142.073 36.0794H169.715C170.282 36.0794 170.825 35.8511 171.226 35.4447C171.626 35.0382 171.851 34.487 171.851 33.9122V28.494C171.851 27.9193 171.626 27.368 171.226 26.9616C170.825 26.5551 170.282 26.3268 169.715 26.3268H151.994C151.44 26.3271 150.908 26.1092 150.509 25.719C150.111 25.3289 149.877 24.7969 149.858 24.2354Z" fill="#EB734B"/>
<path d="M160.281 9.42749H153.11C152.679 9.42749 152.33 9.78166 152.33 10.2185V13.5995C152.33 14.0363 152.679 14.3905 153.11 14.3905H160.281C160.711 14.3905 161.06 14.0363 161.06 13.5995V10.2185C161.06 9.78166 160.711 9.42749 160.281 9.42749Z" fill="white"/>
<path d="M132.398 12.1908V33.9446C132.398 34.5194 132.173 35.0707 131.772 35.4771C131.372 35.8835 130.829 36.1119 130.262 36.1119H122.253C121.686 36.1119 121.143 35.8835 120.743 35.4771C120.342 35.0707 120.117 34.5194 120.117 33.9446V17.1484C120.117 15.3114 119.398 13.5496 118.119 12.2502C116.839 10.9507 115.104 10.22 113.293 10.2186H111.099C110.532 10.2186 109.989 10.4469 109.589 10.8533C109.188 11.2598 108.963 11.811 108.963 12.3858V33.9663C108.963 34.5411 108.738 35.0923 108.337 35.4988C107.937 35.9052 107.394 36.1335 106.827 36.1335H98.8179C98.2515 36.1335 97.7082 35.9052 97.3077 35.4988C96.9071 35.0923 96.6821 34.5411 96.6821 33.9663V2.16179C96.6821 1.587 96.9071 1.03575 97.3077 0.629306C97.7082 0.222867 98.2515 -0.00546683 98.8179 -0.00546683H120.256C121.845 -0.0219395 123.421 0.28138 124.893 0.886919C126.366 1.49246 127.705 2.38821 128.834 3.52238C129.963 4.65654 130.86 6.00661 131.471 7.49451C132.083 8.98241 132.398 10.5786 132.398 12.1908V12.1908Z" fill="#EB734B"/>
<path d="M195.244 3.63549H208.592C209.159 3.63549 209.702 3.86383 210.103 4.27027C210.503 4.67671 210.728 5.22796 210.728 5.80275V11.3889C210.728 11.9636 210.503 12.5149 210.103 12.9213C209.702 13.3278 209.159 13.5561 208.592 13.5561H200.049C198.23 13.5561 196.484 14.2896 195.198 15.5953C193.911 16.901 193.188 18.6719 193.188 20.5184V33.9879C193.188 34.5627 192.963 35.1139 192.563 35.5204C192.162 35.9268 191.619 36.1552 191.052 36.1552H184.527C183.961 36.1552 183.418 35.9268 183.017 35.5204C182.617 35.1139 182.392 34.5627 182.392 33.9879V1.52783C182.392 1.13266 182.546 0.753657 182.822 0.47423C183.097 0.194803 183.471 0.0378418 183.86 0.0378418H191.65C192.04 0.0378418 192.413 0.194803 192.689 0.47423C192.964 0.753657 193.119 1.13266 193.119 1.52783V1.52783C193.134 2.09036 193.364 2.62481 193.761 3.01815C194.157 3.41149 194.689 3.63289 195.244 3.63549V3.63549Z" fill="#EB734B"/>
<path d="M46.1369 9.59015V33.9718C46.1369 34.5466 45.9119 35.0978 45.5114 35.5043C45.1108 35.9107 44.5676 36.139 44.0011 36.139H37.5671C37.0006 36.139 36.4574 35.9107 36.0568 35.5043C35.6563 35.0978 35.4313 34.5466 35.4313 33.9718V16.4549C35.4313 15.5022 35.0583 14.5885 34.3944 13.9148C33.7305 13.2412 32.8301 12.8627 31.8912 12.8627V12.8627C30.9523 12.8627 30.0519 13.2412 29.388 13.9148C28.7241 14.5885 28.3511 15.5022 28.3511 16.4549V33.9718C28.3511 34.5466 28.1261 35.0978 27.7255 35.5043C27.325 35.9107 26.7817 36.139 26.2153 36.139H19.9734C19.407 36.139 18.8637 35.9107 18.4632 35.5043C18.0627 35.0978 17.8376 34.5466 17.8376 33.9718V16.4549C17.837 15.9537 17.7331 15.4581 17.5326 14.9999C17.3321 14.5418 17.0395 14.1312 16.6735 13.7945C16.3076 13.4578 15.8763 13.2024 15.4073 13.0448C14.9384 12.8871 14.4422 12.8307 13.9505 12.879C13.0564 12.9899 12.2345 13.4327 11.643 14.1219C11.0515 14.8112 10.7322 15.6982 10.7468 16.612V33.9501C10.7468 34.5249 10.5218 35.0761 10.1212 35.4826C9.72071 35.889 9.17746 36.1173 8.61101 36.1173H2.11285C1.5464 36.1173 1.00315 35.889 0.602609 35.4826C0.20207 35.0761 -0.0229492 34.5249 -0.0229492 33.9501V9.56846C-0.0172931 7.02876 0.980921 4.59505 2.75269 2.80124C4.52447 1.00743 6.92511 3.17826e-05 9.42795 3.82678e-05H36.6593C37.9027 -0.00352578 39.1345 0.241895 40.2843 0.722248C41.434 1.2026 42.479 1.90844 43.3594 2.79932C44.2398 3.6902 44.9384 4.7486 45.415 5.91389C45.8916 7.07919 46.1369 8.32848 46.1369 9.59015V9.59015Z" fill="#EB734B"/>
<path d="M241.606 2.35493e-06H247.875C248.243 0.00591944 248.604 0.108442 248.921 0.297597C249.239 0.486752 249.503 0.756109 249.688 1.0795C249.873 1.40288 249.973 1.76931 249.977 2.14315C249.981 2.51699 249.889 2.88552 249.711 3.21296L231.787 35.0174C231.6 35.345 231.333 35.6173 231.011 35.8074C230.688 35.9976 230.323 36.0988 229.95 36.1011H223.682C223.313 36.0961 222.951 35.9942 222.633 35.8055C222.314 35.6167 222.049 35.3474 221.864 35.0239C221.678 34.7003 221.579 34.3336 221.574 33.9593C221.57 33.585 221.661 33.216 221.839 32.8881L228.834 20.4806L227.398 23.0271L217.728 3.05042C217.584 2.72304 217.522 2.36451 217.548 2.00697C217.574 1.64943 217.688 1.30407 217.877 1.00178C218.067 0.699494 218.328 0.449742 218.637 0.274911C218.945 0.100079 219.292 0.00561332 219.645 2.35493e-06H225.678C226.081 0.0026658 226.474 0.120519 226.813 0.340025C227.152 0.559531 227.423 0.871753 227.595 1.24074L231.867 10.587C231.974 10.8222 232.142 11.0229 232.354 11.1672C232.566 11.3115 232.813 11.3938 233.068 11.405C233.323 11.4162 233.576 11.3559 233.799 11.2307C234.022 11.1055 234.207 10.9203 234.334 10.6954L239.753 1.08363C239.941 0.753696 240.211 0.479805 240.536 0.289561C240.862 0.0993162 241.231 -0.00055919 241.606 2.35493e-06V2.35493e-06Z" fill="#EB734B"/>
</g>
<defs>
<clipPath id="clip0_458_200">
<rect width="250" height="36.1011" fill="white"/>
</clipPath>
</defs>
</svg>
