<svg width="10" height="18" viewBox="0 0 10 18" fill="none" xmlns="http://www.w3.org/2000/svg">
<path fill-rule="evenodd" clip-rule="evenodd" d="M8.24953 1L1.18081 8.89348L1.22589 8.92892L1.00002 9.10651L8.06873 17L8.85485 16.3819L2.33464 9.10094L9.03564 1.61808L8.24953 1Z" fill="#585858"/>
<path d="M1.18081 8.89348L0.808336 8.55992L0.452704 8.95705L0.871775 9.28654L1.18081 8.89348ZM8.24953 1L8.55857 0.606941L8.1899 0.317085L7.87705 0.666442L8.24953 1ZM1.22589 8.92892L1.53493 9.32198L2.03485 8.92892L1.53493 8.53586L1.22589 8.92892ZM1.00002 9.10651L0.690976 8.71345L0.271907 9.04294L0.627539 9.44007L1.00002 9.10651ZM8.06873 17L7.69625 17.3335L8.00911 17.6829L8.37777 17.393L8.06873 17ZM8.85485 16.3819L9.16389 16.775L9.58296 16.4455L9.22732 16.0484L8.85485 16.3819ZM2.33464 9.10094L1.96217 8.76738L1.66346 9.10094L1.96217 9.4345L2.33464 9.10094ZM9.03564 1.61808L9.40812 1.95164L9.76375 1.55451L9.34468 1.22502L9.03564 1.61808ZM1.55329 9.22704L8.622 1.33356L7.87705 0.666442L0.808336 8.55992L1.55329 9.22704ZM1.53493 8.53586L1.48985 8.50042L0.871775 9.28654L0.916848 9.32198L1.53493 8.53586ZM1.30905 9.49957L1.53493 9.32198L0.916848 8.53586L0.690976 8.71345L1.30905 9.49957ZM8.44121 16.6664L1.37249 8.77295L0.627539 9.44007L7.69625 17.3335L8.44121 16.6664ZM8.54581 15.9889L7.75969 16.6069L8.37777 17.393L9.16389 16.775L8.54581 15.9889ZM1.96217 9.4345L8.48237 16.7155L9.22732 16.0484L2.70712 8.76738L1.96217 9.4345ZM8.66317 1.28452L1.96217 8.76738L2.70712 9.4345L9.40812 1.95164L8.66317 1.28452ZM7.94049 1.39306L8.72661 2.01114L9.34468 1.22502L8.55857 0.606941L7.94049 1.39306Z" fill="#585858"/>
</svg>
