<svg width="32" height="32" viewBox="0 0 32 32" fill="none" xmlns="http://www.w3.org/2000/svg">
<circle cx="16" cy="16" r="16" fill="#EB734B"/>
<path d="M21.5 13.95C21.5 14.6838 21.2822 15.5866 20.8974 16.5841C20.5149 17.5753 19.9795 18.6293 19.3731 19.6561C18.2893 21.491 16.9998 23.2034 16 24.2802C15.0002 23.2034 13.7107 21.491 12.6269 19.6561C12.0205 18.6293 11.4851 17.5753 11.1026 16.5841C10.7178 15.5866 10.5 14.6838 10.5 13.95C10.5 10.944 12.9585 8.5 16 8.5C19.0415 8.5 21.5 10.944 21.5 13.95Z" stroke="white"/>
<path d="M18.0714 13.9501C18.0714 15.0784 17.148 16.0001 16 16.0001C14.852 16.0001 13.9286 15.0784 13.9286 13.9501C13.9286 12.8219 14.852 11.9001 16 11.9001C17.148 11.9001 18.0714 12.8219 18.0714 13.9501Z" stroke="white"/>
</svg>
