<svg width="26" height="24" viewBox="0 0 26 24" fill="none" xmlns="http://www.w3.org/2000/svg">
<g clip-path="url(#clip0_302_506)" filter="url(#filter0_d_302_506)">
<g filter="url(#filter1_d_302_506)">
<path d="M21.8401 4.60999C21.3294 4.099 20.7229 3.69364 20.0555 3.41708C19.388 3.14052 18.6726 2.99817 17.9501 2.99817C17.2276 2.99817 16.5122 3.14052 15.8448 3.41708C15.1773 3.69364 14.5709 4.099 14.0601 4.60999L13.0001 5.66999L11.9401 4.60999C10.9084 3.5783 9.50915 2.9987 8.05012 2.9987C6.59109 2.9987 5.19181 3.5783 4.16012 4.60999C3.12843 5.64169 2.54883 7.04096 2.54883 8.49999C2.54883 9.95903 3.12843 11.3583 4.16012 12.39L5.22012 13.45L13.0001 21.23L20.7801 13.45L21.8401 12.39C22.3511 11.8792 22.7565 11.2728 23.033 10.6053C23.3096 9.93789 23.4519 9.22248 23.4519 8.49999C23.4519 7.77751 23.3096 7.0621 23.033 6.39464C22.7565 5.72718 22.3511 5.12075 21.8401 4.60999Z" fill="#EB734B"/>
<path d="M21.8401 4.60999C21.3294 4.099 20.7229 3.69364 20.0555 3.41708C19.388 3.14052 18.6726 2.99817 17.9501 2.99817C17.2276 2.99817 16.5122 3.14052 15.8448 3.41708C15.1773 3.69364 14.5709 4.099 14.0601 4.60999L13.0001 5.66999L11.9401 4.60999C10.9084 3.5783 9.50915 2.9987 8.05012 2.9987C6.59109 2.9987 5.19181 3.5783 4.16012 4.60999C3.12843 5.64169 2.54883 7.04096 2.54883 8.49999C2.54883 9.95903 3.12843 11.3583 4.16012 12.39L5.22012 13.45L13.0001 21.23L20.7801 13.45L21.8401 12.39C22.3511 11.8792 22.7565 11.2728 23.033 10.6053C23.3096 9.93789 23.4519 9.22248 23.4519 8.49999C23.4519 7.77751 23.3096 7.0621 23.033 6.39464C22.7565 5.72718 22.3511 5.12075 21.8401 4.60999Z" stroke="#EB734B" stroke-width="2" stroke-linecap="round" stroke-linejoin="round"/>
</g>
</g>
<defs>
<filter id="filter0_d_302_506" x="0" y="-1" width="26" height="26" filterUnits="userSpaceOnUse" color-interpolation-filters="sRGB">
<feFlood flood-opacity="0" result="BackgroundImageFix"/>
<feColorMatrix in="SourceAlpha" type="matrix" values="0 0 0 0 0 0 0 0 0 0 0 0 0 0 0 0 0 0 127 0" result="hardAlpha"/>
<feOffset/>
<feGaussianBlur stdDeviation="0.5"/>
<feComposite in2="hardAlpha" operator="out"/>
<feColorMatrix type="matrix" values="0 0 0 0 0 0 0 0 0 0 0 0 0 0 0 0 0 0 0.8 0"/>
<feBlend mode="normal" in2="BackgroundImageFix" result="effect1_dropShadow_302_506"/>
<feBlend mode="normal" in="SourceGraphic" in2="effect1_dropShadow_302_506" result="shape"/>
</filter>
<filter id="filter1_d_302_506" x="0.548828" y="0.998169" width="24.9033" height="22.2318" filterUnits="userSpaceOnUse" color-interpolation-filters="sRGB">
<feFlood flood-opacity="0" result="BackgroundImageFix"/>
<feColorMatrix in="SourceAlpha" type="matrix" values="0 0 0 0 0 0 0 0 0 0 0 0 0 0 0 0 0 0 127 0" result="hardAlpha"/>
<feOffset/>
<feGaussianBlur stdDeviation="0.5"/>
<feComposite in2="hardAlpha" operator="out"/>
<feColorMatrix type="matrix" values="0 0 0 0 0 0 0 0 0 0 0 0 0 0 0 0 0 0 0.25 0"/>
<feBlend mode="normal" in2="BackgroundImageFix" result="effect1_dropShadow_302_506"/>
<feBlend mode="normal" in="SourceGraphic" in2="effect1_dropShadow_302_506" result="shape"/>
</filter>
<clipPath id="clip0_302_506">
<rect width="24" height="24" fill="white" transform="translate(1)"/>
</clipPath>
</defs>
</svg>
