<svg width="20" height="17" viewBox="0 0 20 17" fill="none" xmlns="http://www.w3.org/2000/svg">
<path d="M2.71155 2.71973V16.9999H20V2.71973H2.71155ZM18.6439 15.6398H4.06756V4.07958H18.6439V15.6398Z" fill="#4F4F4F"/>
<path d="M13.7237 8.22481C13.5836 8.01183 13.3461 7.88352 13.0916 7.88379C12.8369 7.88402 12.5996 8.01261 12.4598 8.22587L10.021 11.9484L8.675 10.4183C8.51903 10.2409 8.28918 10.1467 8.05379 10.1636C7.8184 10.1801 7.60442 10.3062 7.47493 10.5041L5.21594 13.9563H17.4955L13.7237 8.22481Z" fill="#4F4F4F"/>
<path d="M8.61976 9.00347C9.46737 9.00347 10.1545 8.31425 10.1545 7.46382C10.1545 6.61365 9.46737 5.92444 8.61976 5.92444C7.77187 5.92444 7.08472 6.61365 7.08472 7.46382C7.08472 8.31425 7.77187 9.00347 8.61976 9.00347Z" fill="#4F4F4F"/>
<path d="M17.2884 1.35986V0H0V14.2802H1.35605V12.9201V1.35986H15.9324H17.2884Z" fill="#4F4F4F"/>
</svg>
