<svg width="20" height="20" viewBox="0 0 20 20" fill="none" xmlns="http://www.w3.org/2000/svg">
<path d="M13.1311 9.35425H10.9735L10.7416 9.71437V10.578H13.1311V10.5811V11.629V11.8042H10.7416V13.6548H9.2578V11.8042H6.8689V11.629V10.5811V10.578H9.2578V9.71558L9.02589 9.35425H6.8689V8.30687H8.35206L7.09105 6.3446H8.34839L9.99936 8.91359L11.651 6.3446H12.9083L11.6485 8.30687H13.1311V9.35425Z" fill="#4F4F4F"/>
<path d="M10 2.5C14.1357 2.5 17.5 5.86426 17.5 10C17.5 14.1357 14.1357 17.5 10 17.5C5.86488 17.5 2.5 14.1357 2.5 10C2.5 5.86426 5.86488 2.5 10 2.5ZM10 0C4.47691 0 0 4.47754 0 10C0 15.5231 4.47691 20 10 20C15.5225 20 20 15.5231 20 10C20 4.47754 15.5225 0 10 0Z" fill="#4F4F4F"/>
</svg>
