<svg width="20" height="20" viewBox="0 0 20 20" fill="none" xmlns="http://www.w3.org/2000/svg">
<path d="M5.70928 4.04395C6.35184 4.04395 6.87284 3.5373 6.87284 2.91219V1.13141C6.87288 0.506641 6.35184 0 5.70928 0C5.06645 0 4.54541 0.506641 4.54541 1.13141V2.91219C4.54541 3.53734 5.06645 4.04395 5.70928 4.04395Z" fill="#4F4F4F"/>
<path d="M14.291 4.04395C14.9335 4.04395 15.4546 3.5373 15.4546 2.91219V1.13141C15.4546 0.506641 14.9335 0 14.291 0C13.6481 0 13.1271 0.506641 13.1271 1.13141V2.91219C13.1271 3.53734 13.6481 4.04395 14.291 4.04395Z" fill="#4F4F4F"/>
<path d="M17.1975 1.61279H16.4774V2.91221C16.4774 4.08478 15.4966 5.03846 14.2911 5.03846C13.0852 5.03846 12.1044 4.08478 12.1044 2.91221V1.61279H7.89557V2.91221C7.89557 4.08478 6.9148 5.03846 5.70926 5.03846C4.50341 5.03846 3.52264 4.08478 3.52264 2.91221V1.61279H2.80255C1.25479 1.61279 0 2.83291 0 4.33791V17.2749C0 18.7799 1.25479 20 2.80255 20H17.1975C18.7452 20 20 18.7799 20 17.2749V4.33791C20 2.83291 18.7452 1.61279 17.1975 1.61279ZM17.7944 16.7964C17.7944 17.4928 17.2118 18.0593 16.4957 18.0593H3.50432C2.78825 18.0593 2.20563 17.4928 2.20563 16.7964V6.67486H17.7944V16.7964Z" fill="#4F4F4F"/>
</svg>
