<svg width="24" height="24" viewBox="0 0 24 24" fill="none" xmlns="http://www.w3.org/2000/svg">
<path d="M10.6449 5.2688C12.9399 5.67062 18.2204 8.69047 17.5147 10.8969L17.3128 11.8532C17.3128 11.8532 18.2688 14.7265 21.8 14.6257C21.0936 16.9323 19.1558 17.6297 16.7829 17.7689C13.1985 17.5607 13.6843 16.5243 13.6843 16.5243C13.6843 16.5243 16.6415 14.9366 7.46716 13.8929L10.6449 5.2688Z" fill="#EB734B"/>
<path d="M2.92929 21C2.82112 21 2.71176 20.9811 2.60479 20.9408C2.12441 20.76 1.87969 20.2195 2.05855 19.7334L8.00016 3.61081C8.17964 3.12469 8.7156 2.87921 9.19416 3.05876C9.67517 3.23952 9.91988 3.77997 9.74041 4.26609L3.79941 20.3887C3.66042 20.7668 3.30572 21 2.92929 21Z" fill="#EB734B"/>
</svg>
