<svg width="22" height="20" viewBox="0 0 22 20" fill="none" xmlns="http://www.w3.org/2000/svg">
<path d="M9.60543 2.52087C12.1554 2.96734 18.0227 6.32273 17.2385 8.77428L17.0142 9.83688C17.0142 9.83688 18.0764 13.0294 21.9999 12.9175C21.2151 15.4803 19.0619 16.2552 16.4254 16.4099C12.4427 16.1785 12.9825 15.027 12.9825 15.027C12.9825 15.027 16.2683 13.2628 6.07458 12.1032L9.60543 2.52087Z" fill="#4F4F4F"/>
<path d="M1.03254 20C0.912359 20 0.790843 19.979 0.671991 19.9342C0.138231 19.7333 -0.133677 19.1328 0.0650546 18.5927L6.66685 0.678682C6.86627 0.138545 7.46177 -0.134217 7.99351 0.0652844C8.52796 0.266131 8.79987 0.866632 8.60045 1.40677L1.99934 19.3208C1.84491 19.7408 1.4508 20 1.03254 20Z" fill="#4F4F4F"/>
</svg>
