<svg width="20" height="20" viewBox="0 0 20 20" fill="none" xmlns="http://www.w3.org/2000/svg">
<path d="M19.5925 12.1057C19.3984 11.6949 19.1453 11.3635 18.8714 11.0718C18.7351 10.9265 18.5942 10.7922 18.4512 10.6591C18.4881 10.5053 18.4512 10.3405 18.3283 10.216L18.331 10.2148C18.3277 10.2099 18.3116 10.169 18.3015 10.0964C18.2914 10.0244 18.2853 9.92305 18.2853 9.80223C18.2847 9.49828 18.3196 9.07469 18.3196 8.58762C18.3196 7.97238 18.2639 7.24852 17.9906 6.49168C17.7187 5.73484 17.2246 4.94992 16.3874 4.23461C15.3958 3.38621 14.237 2.91992 13.1158 2.66965C13.0796 2.66172 13.044 2.65562 13.0091 2.64766C13.2112 2.37664 13.3293 2.04949 13.3293 1.69672C13.3293 0.760508 12.4941 0 11.4622 0C10.8667 0 10.3417 0.258789 10 0.654297C9.65897 0.258789 9.13326 0 8.53709 0C7.50588 0.000625 6.67068 0.759297 6.67003 1.6968C6.67003 2.04957 6.78888 2.37672 6.99096 2.64773C6.95538 2.65566 6.92045 2.66176 6.88423 2.66973C5.76304 2.91996 4.60292 3.38629 3.61265 4.23469C2.77479 4.95004 2.28135 5.73555 2.00877 6.49176C1.73618 7.24859 1.68045 7.97246 1.68045 8.5877C1.68045 9.07477 1.7147 9.49711 1.7147 9.80109C1.7147 9.9598 1.70396 10.0843 1.68716 10.1539C1.68045 10.1887 1.67173 10.2088 1.66902 10.2137L1.66834 10.2149L1.67036 10.2161C1.54816 10.3406 1.51125 10.5042 1.54816 10.6592C1.50115 10.702 1.45483 10.7459 1.40851 10.7898C1.02984 11.153 0.665996 11.5571 0.407504 12.1058C0.148369 12.6551 -0.000685109 13.3356 2.36769e-06 14.2481C-0.000685109 15.1844 0.261845 16.0304 0.75395 16.7567C1.49247 17.8468 2.72843 18.6573 4.30614 19.1938C5.88657 19.7308 7.81872 20 10 20C12.9084 19.9988 15.3743 19.5233 17.1514 18.5657C18.0389 18.0865 18.7546 17.4829 19.246 16.7566C19.7382 16.0302 20.0007 15.1843 20 14.248C20.0006 13.3356 19.8516 12.655 19.5925 12.1057ZM11.4622 1.01809C11.8744 1.0193 12.2081 1.32328 12.2088 1.6968C12.2081 2.07277 11.8751 2.37551 11.4622 2.37672C11.0507 2.37551 10.7164 2.07152 10.7157 1.6968C10.7164 1.32324 11.0507 1.0193 11.4622 1.01809ZM8.53709 1.01809C8.94932 1.0193 9.28296 1.32328 9.28365 1.6968C9.28296 2.07277 8.94997 2.37551 8.53709 2.37672C8.12555 2.37551 7.79122 2.07152 7.79054 1.6968C7.79122 1.32324 8.12555 1.0193 8.53709 1.01809ZM17.1782 9.36891C16.8963 9.01 16.6271 8.58277 16.3887 8.02004C15.8637 6.77492 15.0964 5.89602 14.0296 5.36012C12.9641 4.82301 11.6415 4.62648 10 4.62648C8.35856 4.62648 7.03663 4.82301 5.97053 5.36012C4.90373 5.89602 4.13634 6.77492 3.61136 8.02004C3.37234 8.58156 3.10379 9.01125 2.82184 9.37137C2.8111 9.12355 2.79967 8.86598 2.80035 8.58766C2.80035 8.0298 2.85273 7.42066 3.07358 6.8091C3.29581 6.19691 3.67981 5.57801 4.38073 4.97684C5.20115 4.27371 6.16521 3.88004 7.15281 3.65848C8.13904 3.43754 9.14139 3.3948 10.0001 3.3948C10.8594 3.3948 11.8611 3.43754 12.8474 3.65848C13.8349 3.88004 14.7983 4.27371 15.6194 4.97684C16.3204 5.57805 16.7037 6.19691 16.9266 6.8091C17.1475 7.42066 17.1998 8.02918 17.1998 8.58766C17.2004 8.86477 17.189 9.1223 17.1782 9.36891Z" fill="#4F4F4F"/>
</svg>
