<svg width="18" height="20" viewBox="0 0 18 20" fill="none" xmlns="http://www.w3.org/2000/svg">
<path d="M17.4436 13.6341C16.8924 12.8813 16.4187 12.1907 16.0369 11.376C15.6552 10.5614 15.3596 9.61445 15.1865 8.33137C15.0593 7.38816 14.8299 6.55215 14.4975 5.82219C14.2485 5.27508 13.9403 4.78906 13.5746 4.36789C13.0269 3.73645 12.3488 3.25719 11.5736 2.945C11.2988 2.83336 11.0137 2.74344 10.7169 2.67332C10.7169 2.67332 10.7165 2.67297 10.7161 2.67297C10.8485 2.42301 10.9244 2.13934 10.924 1.8418C10.924 1.58922 10.8704 1.34531 10.7725 1.12461C10.6261 0.79336 10.383 0.513399 10.076 0.315196C9.76991 0.116563 9.39639 -0.000350772 9.00018 7.90608e-07C8.73629 7.90608e-07 8.48141 0.0517195 8.25078 0.14504C7.90469 0.285196 7.61222 0.518243 7.40473 0.81168C7.1972 1.10473 7.07546 1.46258 7.07586 1.84176C7.07586 2.09438 7.12949 2.33793 7.22736 2.55863C7.24458 2.59801 7.26336 2.63621 7.28336 2.67367C7.28336 2.67367 7.28299 2.67406 7.28258 2.67406C7.07941 2.72203 6.88049 2.77938 6.68786 2.84645C6.15815 3.03082 5.66795 3.28824 5.22986 3.61727C4.57213 4.11117 4.03454 4.76395 3.63245 5.55387C3.22918 6.34379 2.95672 7.27086 2.8142 8.33137C2.64034 9.61441 2.34477 10.5614 1.96301 11.376C1.58129 12.1907 1.10753 12.8813 0.557094 13.6341C0.173781 14.1573 0 14.7422 0 15.2934C0 15.5764 0.045792 15.8518 0.132723 16.1092C0.263487 16.4941 0.487467 16.8433 0.808092 17.1064C0.968608 17.2379 1.15222 17.3466 1.35657 17.4211C1.55982 17.4964 1.78294 17.5369 2.01158 17.5369H6.15035C6.17892 17.8131 6.25132 18.0788 6.36058 18.3261C6.57864 18.8181 6.94118 19.2359 7.3973 19.532C7.85424 19.8265 8.40901 20.0007 9.00055 20C9.39366 20 9.77187 19.9236 10.1152 19.7845C10.6301 19.5755 11.0667 19.2292 11.3759 18.7915C11.6332 18.4273 11.8015 17.9975 11.8496 17.5369H15.9884C16.2941 17.5369 16.587 17.4642 16.8403 17.3353C17.0314 17.2394 17.1997 17.1135 17.3442 16.9684C17.56 16.7496 17.7232 16.4892 17.8324 16.2052C17.9428 15.9204 18 15.6116 18 15.2934C18 14.7422 17.8262 14.1573 17.4436 13.6341ZM8.38273 1.59227C8.43285 1.47836 8.51859 1.37902 8.62589 1.30969C8.73351 1.2407 8.85922 1.20102 9.00018 1.20066C9.09413 1.20102 9.18066 1.21863 9.26053 1.25086C9.37995 1.29922 9.48332 1.38129 9.55573 1.48359C9.62817 1.58703 9.66967 1.70691 9.66967 1.8418C9.66967 1.93176 9.65086 2.01457 9.61719 2.09102C9.56707 2.20527 9.48136 2.30422 9.37407 2.37356C9.2664 2.44289 9.14074 2.48262 9.00018 2.48262C8.90582 2.48262 8.8193 2.46461 8.73943 2.43238C8.62001 2.38441 8.51663 2.30234 8.44423 2.19969C8.3722 2.09664 8.33069 1.97672 8.33028 1.8418C8.33028 1.75148 8.34906 1.66867 8.38273 1.59227ZM3.1074 11.8673C3.54083 10.9439 3.87243 9.86586 4.05801 8.48496C4.17277 7.63437 4.37594 6.90812 4.65196 6.30254C4.85908 5.84801 5.10726 5.46129 5.38956 5.13641C5.81512 4.64738 6.31785 4.29254 6.91449 4.05043C7.51044 3.80949 8.20458 3.6832 9.00051 3.6832C9.70645 3.6832 10.3344 3.78285 10.883 3.97398C11.2952 4.11828 11.6644 4.31273 11.9957 4.5623C12.4929 4.93551 12.9098 5.43277 13.2411 6.08031C13.5719 6.72785 13.8127 7.52719 13.9419 8.48492C14.1274 9.86582 14.4591 10.9439 14.8925 11.8672C15.1811 12.4833 15.5127 13.0278 15.8674 13.549H2.13332C2.48807 13.0278 2.81889 12.4834 3.1074 11.8673ZM10.4844 17.8577C10.3623 18.1339 10.1571 18.3707 9.8999 18.5367C9.64192 18.7034 9.33575 18.7994 9.00055 18.7994C8.77624 18.7994 8.56602 18.7563 8.37334 18.6784C8.08557 18.5618 7.83812 18.3655 7.6643 18.1193C7.54252 17.9462 7.45563 17.7498 7.4153 17.537H10.5839C10.5631 17.6486 10.529 17.7558 10.4844 17.8577ZM16.6739 15.7393C16.6058 15.9409 16.4946 16.098 16.3763 16.1939C16.3164 16.243 16.2562 16.2771 16.1935 16.3003C16.1301 16.3236 16.0647 16.3363 15.9883 16.3363H11.6981H10.2898H7.70932H6.30067H2.01158C1.90938 16.3355 1.82678 16.3142 1.74458 16.2737C1.68352 16.243 1.62243 16.1991 1.56529 16.1407C1.47913 16.0541 1.39967 15.9342 1.34409 15.7884C1.28772 15.6434 1.25446 15.4736 1.25446 15.2934C1.2552 15.0079 1.33507 14.701 1.52693 14.4068H16.4739C16.665 14.7002 16.7448 15.0079 16.7456 15.2934C16.7456 15.453 16.7197 15.6056 16.6739 15.7393Z" fill="#EB734B"/>
</svg>
