<svg width="16" height="13" viewBox="0 0 16 13" fill="none" xmlns="http://www.w3.org/2000/svg">
<g clip-path="url(#clip0_416_5246)">
<path d="M15.9982 3.23836V11.4715C15.9982 11.6656 15.9202 11.8517 15.7813 11.9889C15.6424 12.1262 15.4541 12.2033 15.2577 12.2033H13.0267C12.8303 12.2033 12.6419 12.1262 12.503 11.9889C12.3641 11.8517 12.2861 11.6656 12.2861 11.4715V5.55644C12.2861 5.23473 12.1568 4.92619 11.9266 4.69871C11.6964 4.47123 11.3842 4.34343 11.0586 4.34343C10.7331 4.34343 10.4209 4.47123 10.1907 4.69871C9.96046 4.92619 9.83113 5.23473 9.83113 5.55644V11.4715C9.83113 11.6656 9.75311 11.8517 9.61423 11.9889C9.47534 12.1262 9.28698 12.2033 9.09057 12.2033H6.92625C6.72984 12.2033 6.54147 12.1262 6.40259 11.9889C6.26371 11.8517 6.18568 11.6656 6.18568 11.4715V5.55644C6.18545 5.38717 6.14942 5.21982 6.07991 5.06512C6.0104 4.91041 5.90894 4.77176 5.78204 4.65807C5.65514 4.54438 5.5056 4.45815 5.343 4.40491C5.18041 4.35167 5.00834 4.3326 4.83785 4.34892C4.52785 4.38638 4.24283 4.53589 4.03773 4.76864C3.83263 5.00138 3.72195 5.30091 3.727 5.6095V11.4642C3.727 11.6582 3.64897 11.8444 3.51009 11.9816C3.3712 12.1189 3.18284 12.196 2.98643 12.196H0.733245C0.536834 12.196 0.348467 12.1189 0.209583 11.9816C0.0706998 11.8444 -0.0073237 11.6582 -0.0073237 11.4642V3.23105C-0.00756707 2.80572 0.0770314 2.3845 0.241631 1.9915C0.40623 1.59849 0.647602 1.24141 0.951949 0.940649C1.2563 0.639892 1.61765 0.401369 2.01535 0.238712C2.41304 0.0760542 2.83928 -0.00754606 3.2697 -0.00730556H12.7119C13.1438 -0.0087546 13.5716 0.0741941 13.9709 0.236768C14.3701 0.399343 14.7329 0.638337 15.0383 0.93999C15.3437 1.24164 15.5858 1.6 15.7505 1.99444C15.9153 2.38889 15.9994 2.81164 15.9982 3.23836Z" fill="#EB734B"/>
</g>
<defs>
<clipPath id="clip0_416_5246">
<rect width="16" height="12.1905" fill="white"/>
</clipPath>
</defs>
</svg>
